<?xml version="1.0" encoding="UTF-8"?>
<svg xmlns="http://www.w3.org/2000/svg" width="200" height="200" viewBox="0 0 200 200" role="img" aria-label="Google · Yellow">
  <title>Google · Yellow</title>
  <rect width="200" height="200" rx="12" fill="#eab308" stroke="rgba(15, 23, 42, 0.15)" stroke-width="1"/>
  <rect x="10" y="10" width="180" height="180" rx="8" fill="#ffffff" filter="url(#shadow)"/>
  <svg x="16" y="16" width="168" height="168" viewBox="0 0 120 120" preserveAspectRatio="xMidYMid meet">
    <rect width="120" height="120" rx="14" fill="#ffffff"/>
  <g transform="translate(20 20) scale(3.333333)">
    <path d="M12.48 10.92v3.28h7.84c-.24 1.84-.853 3.187-1.787 4.133-1.147 1.147-2.933 2.4-6.053 2.4-4.827 0-8.6-3.893-8.6-8.72s3.773-8.72 8.6-8.72c2.6 0 4.507 1.027 5.907 2.347l2.307-2.307C18.747 1.44 16.133 0 12.48 0 5.867 0 .307 5.387.307 12s5.56 12 12.173 12c3.573 0 6.267-1.173 8.373-3.36 2.16-2.16 2.84-5.213 2.84-7.667 0-.76-.053-1.467-.173-2.053H12.48z" fill="#4285F4"/>
  </g>
  </svg>
  <defs>
    <filter id="shadow" x="-10%" y="-10%" width="120%" height="120%">
      <feDropShadow dx="0" dy="1" stdDeviation="1.5" flood-opacity="0.12"/>
    </filter>
  </defs>
</svg>