<?xml version="1.0" encoding="UTF-8"?>
<svg xmlns="http://www.w3.org/2000/svg" width="200" height="200" viewBox="0 0 200 200" role="img" aria-label="Google · Yellow">
  <title>Google · Yellow</title>
  <rect width="200" height="200" rx="12" fill="#eab308" stroke="rgba(15, 23, 42, 0.15)" stroke-width="1"/>
  <rect x="10" y="10" width="180" height="180" rx="8" fill="#ffffff" filter="url(#shadow)"/>
  <svg x="16" y="16" width="168" height="168" viewBox="0 0 120 120" preserveAspectRatio="xMidYMid meet">
    <rect width="120" height="120" rx="14" fill="#ffffff"/>
  <svg x="20" y="20" width="80" height="80" viewBox="0 0 24 24" preserveAspectRatio="xMidYMid meet">
    <path d="M22.56 12.25c0-.78-.07-1.53-.2-2.25H12v4.26h5.92c-.26 1.37-1.04 2.53-2.21 3.31v2.77h3.57c2.08-1.92 3.28-4.74 3.28-8.09z" fill="#4285F4"/>
    <path d="M12 23c2.97 0 5.46-.98 7.28-2.66l-3.57-2.77c-.98.66-2.23 1.06-3.71 1.06-2.86 0-5.29-1.93-6.16-4.53H2.18v2.84C3.99 20.53 7.7 23 12 23z" fill="#34A853"/>
    <path d="M5.84 14.09c-.22-.66-.35-1.36-.35-2.09s.13-1.43.35-2.09V7.07H2.18C1.43 8.55 1 10.22 1 12s.43 3.45 1.18 4.93l2.85-2.22.81-.62z" fill="#FBBC05"/>
    <path d="M12 5.38c1.62 0 3.06.56 4.21 1.64l3.15-3.15C17.45 2.09 14.97 1 12 1 7.7 1 3.99 3.47 2.18 7.07l3.66 2.84c.87-2.6 3.3-4.53 6.16-4.53z" fill="#EA4335"/>
  </svg>
  </svg>
  <defs>
    <filter id="shadow" x="-10%" y="-10%" width="120%" height="120%">
      <feDropShadow dx="0" dy="1" stdDeviation="1.5" flood-opacity="0.12"/>
    </filter>
  </defs>
</svg>