<?xml version="1.0" encoding="UTF-8"?>
<svg xmlns="http://www.w3.org/2000/svg" width="200" height="200" viewBox="0 0 200 200" role="img" aria-label="Facebook · Purple">
  <title>Facebook · Purple</title>
  <rect width="200" height="200" rx="12" fill="#9333ea" stroke="rgba(15, 23, 42, 0.15)" stroke-width="1"/>
  <rect x="10" y="10" width="180" height="180" rx="8" fill="#ffffff" filter="url(#shadow)"/>
  <svg x="16" y="16" width="168" height="168" viewBox="0 0 120 120" preserveAspectRatio="xMidYMid meet">
    <rect width="120" height="120" rx="14" fill="#ffffff"/>
  <g transform="translate(20 20) scale(3.333333)">
    <path d="M9.101 23.691v-7.98H6.627v-3.667h2.474v-1.58c0-4.085 1.848-5.978 5.858-5.978.401 0 .955.042 1.468.103a8.68 8.68 0 0 1 1.141.195v3.325a8.623 8.623 0 0 0-.653-.036 26.805 26.805 0 0 0-.733-.009c-.707 0-1.259.096-1.675.309a1.686 1.686 0 0 0-.679.622c-.258.42-.374.995-.374 1.752v1.297h3.919l-.386 2.103-.287 1.564h-3.246v8.245C19.396 23.238 24 18.179 24 12.044c0-6.627-5.373-12-12-12s-12 5.373-12 12c0 5.628 3.874 10.35 9.101 11.647Z" fill="#0866FF"/>
  </g>
  </svg>
  <defs>
    <filter id="shadow" x="-10%" y="-10%" width="120%" height="120%">
      <feDropShadow dx="0" dy="1" stdDeviation="1.5" flood-opacity="0.12"/>
    </filter>
  </defs>
</svg>