<?xml version="1.0" encoding="UTF-8"?>
<svg xmlns="http://www.w3.org/2000/svg" width="200" height="200" viewBox="0 0 200 200" role="img" aria-label="Wild space">
  <defs>
    <linearGradient id="wildBg" x1="0%" y1="0%" x2="100%" y2="100%">
      <stop offset="0%" stop-color="#fbbf24"/>
      <stop offset="100%" stop-color="#f59e0b"/>
    </linearGradient>
  </defs>
  <rect width="200" height="200" rx="12" fill="url(#wildBg)"/>
  <rect x="6" y="8" width="188" height="160" rx="8" fill="rgba(255,255,255,0.95)"/>
  <svg x="14" y="12" width="172" height="152" viewBox="0 0 120 120" preserveAspectRatio="xMidYMid meet">
    <rect width="120" height="120" rx="14" fill="#ffffff"/>
  <g transform="translate(20 20) scale(3.333333)">
    <path d="M12 0C5.4 0 0 5.4 0 12s5.4 12 12 12 12-5.4 12-12S18.66 0 12 0zm5.521 17.34c-.24.359-.66.48-1.021.24-2.82-1.74-6.36-2.101-10.561-1.141-.418.122-.779-.179-.899-.539-.12-.421.18-.78.54-.9 4.56-1.021 8.52-.6 11.64 1.32.42.18.479.659.301 1.02zm1.44-3.3c-.301.42-.841.6-1.262.3-3.239-1.98-8.159-2.58-11.939-1.38-.479.12-1.02-.12-1.14-.6-.12-.48.12-1.021.6-1.141C9.6 9.9 15 10.561 18.72 12.84c.361.181.54.78.241 1.2zm.12-3.36C15.24 8.4 8.82 8.16 5.16 9.301c-.6.179-1.2-.181-1.38-.721-.18-.601.18-1.2.72-1.381 4.26-1.26 11.28-1.02 15.721 1.621.539.3.719 1.02.419 1.56-.299.421-1.02.599-1.559.3z" fill="#1ED760"/>
  </g>
  </svg>
  <text x="100" y="196" text-anchor="middle" dominant-baseline="auto" font-family="system-ui,Segoe UI,sans-serif" font-size="14" font-weight="800" fill="#78350f">Wild</text>
</svg>